0
SECTION
2
HEADER
9
$INSUNITS
70
4
9
$ACADVER
1
AC1014
9
$HANDSEED
5
FFFF
0
ENDSEC
0
SECTION
2
TABLES
0
TABLE
2
VPORT
5
8
100
AcDbSymbolTable
0
ENDTAB
0
TABLE
2
LTYPE
5
5
100
AcDbSymbolTable
0
LTYPE
5
14
100
AcDbSymbolTableRecord
100
AcDbLinetypeTableRecord
2
BYBLOCK
70
0
0
LTYPE
5
15
100
AcDbSymbolTableRecord
100
AcDbLinetypeTableRecord
2
BYLAYER
70
0
0
LTYPE
5
16
100
AcDbSymbolTableRecord
100
AcDbLinetypeTableRecord
2
DASHED
70
0
3
Dashed __ __ __ __ __ __ __ __ __ __ __ __ __ _
72
65
73
2
40
0.75
49
0.5
74
0
49
-0.25
74
0
0
ENDTAB
0
TABLE
2
LAYER
5
2
100
AcDbSymbolTable
70
2
0
LAYER
5
50
100
AcDbSymbolTableRecord
100
AcDbLayerTableRecord
2
0
70
0
62
7
6
CONTINUOUS
0
ENDTAB
0
TABLE
2
STYLE
5
3
100
AcDbSymbolTable
70
1
0
STYLE
5
11
100
AcDbSymbolTableRecord
100
AcDbTextStyleTableRecord
2
STANDARD
70
0
0
ENDTAB
0
TABLE
2
VIEW
5
6
100
AcDbSymbolTable
70
0
0
ENDTAB
0
TABLE
2
UCS
5
7
100
AcDbSymbolTable
70
0
0
ENDTAB
0
TABLE
2
APPID
5
9
100
AcDbSymbolTable
70
2
0
APPID
5
12
100
AcDbSymbolTableRecord
100
AcDbRegAppTableRecord
2
ACAD
70
0
0
ENDTAB
0
TABLE
2
DIMSTYLE
5
A
100
AcDbSymbolTable
70
1
0
ENDTAB
0
TABLE
2
BLOCK_RECORD
5
1
100
AcDbSymbolTable
70
1
0
BLOCK_RECORD
5
1F
100
AcDbSymbolTableRecord
100
AcDbBlockTableRecord
2
*MODEL_SPACE
0
BLOCK_RECORD
5
1B
100
AcDbSymbolTableRecord
100
AcDbBlockTableRecord
2
*PAPER_SPACE
0
ENDTAB
0
ENDSEC
0
SECTION
2
BLOCKS
0
BLOCK
5
20
100
AcDbEntity
100
AcDbBlockBegin
2
*MODEL_SPACE
0
ENDBLK
5
21
100
AcDbEntity
100
AcDbBlockEnd
0
BLOCK
5
1C
100
AcDbEntity
100
AcDbBlockBegin
2
*PAPER_SPACE
0
ENDBLK
5
1D
100
AcDbEntity
100
AcDbBlockEnd
0
ENDSEC
0
SECTION
2
ENTITIES
0
LWPOLYLINE
5
100
100
AcDbEntity
8
0
100
AcDbPolyline
90
4
70
1
43
0.0
10
50.00000074505806
20
33.000000491738319
10
50.00000074505806
20
43.000000640749931
10
55.000000819563866
20
43.000000640749931
10
55.000000819563866
20
33.000000491738319
0
CIRCLE
5
101
100
AcDbEntity
8
0
100
AcDbCircle
10
6.7123772948980331
20
38.056057598441839
30
0
40
1.9999999999999996
210
-3.4544674220377779e-77
220
-2.9949547739855529e-112
230
1
0
LWPOLYLINE
5
102
100
AcDbEntity
8
0
100
AcDbPolyline
90
6
70
1
43
0.0
10
15.187183307112928
20
20.638286066128014
42
0.27785173732112389
10
15.3785840021421
20
20.561173038022233
42
-4.0275736219062415
10
10.895920171554055
20
17.183243553233318
42
0.27785173732113316
10
10.87455155285754
20
17.388484941106938
10
10.802311785954224
20
17.484350349691077
42
-0.99999999999999989
10
15.114943540209609
20
20.734151474712114
0
LWPOLYLINE
5
103
100
AcDbEntity
8
0
100
AcDbPolyline
90
6
70
1
43
0.0
10
10.874551552857564
20
58.723631976860773
42
0.27785173732111201
10
10.895920171554076
20
58.9288733647344
42
-4.0275736219062415
10
15.378584002142116
20
55.550943879945493
42
0.27785173732112195
10
15.187183307112935
20
55.473830851839708
10
15.114943540209628
20
55.377965443255583
42
-0.99999999999999989
10
10.80231178595424
20
58.627766568276655
0
CIRCLE
5
104
100
AcDbEntity
8
0
100
AcDbCircle
10
107.0123774290085
20
50.556058458983813
30
0
40
1.9999999999999951
210
-3.4544674220377779e-77
220
-2.9949547739855533e-112
230
1
0
CIRCLE
5
105
100
AcDbEntity
8
0
100
AcDbCircle
10
107.01237742900842
20
25.556058458983834
30
0
40
1.9999999999999951
210
-3.4544674220377779e-77
220
-2.9949547739855533e-112
230
1
0
LWPOLYLINE
5
106
100
AcDbEntity
8
0
100
AcDbPolyline
90
34
70
1
43
0.0
10
21.712377429008484
20
1.5560584589838544
10
25.012377429008431
20
1.5560584589838555
10
25.012377429008431
20
22.556058458983877
42
-0.41421356237309592
10
28.012377429008421
20
25.556058458983877
10
39.01237742900846
20
25.556058458983884
10
39.01237742900846
20
28.556058458983891
10
52.312377429008457
20
28.556058458983884
10
52.312377429008443
20
25.556058458983877
10
62.662377429008529
20
25.556058458983916
10
62.662377429008529
20
28.806058458983909
10
70.662377429008473
20
28.806058458983912
10
70.662377429008473
20
25.556058458983919
10
100.01237742900844
20
25.556058458983841
42
-0.41421356237309076
10
103.01237742900838
20
22.556058458983841
10
103.0123774290084
20
9.0428914394889421
42
-0.31953522320730632
10
115.00216416842574
20
6.9149370826634806
10
115.00216416842574
20
69.197179835304198
42
-0.3195352232073041
10
103.01237742900847
20
67.069225478478714
10
103.01237742900847
20
53.556058458983848
42
-0.41421356237309503
10
100.01237742900847
20
50.556058458983841
10
70.662377429008444
20
50.556058458983877
10
70.662377429008473
20
47.306058458983884
10
62.662377429008529
20
47.306058458983884
10
62.662377429008529
20
50.556058458983877
10
52.312377429008478
20
50.556058458983884
10
52.312377429008478
20
47.556058458983884
10
39.012377429008481
20
47.556058458983884
10
39.012377429008481
20
50.556058458983884
10
28.012377429008492
20
50.556058458983898
42
-0.41421356237309503
10
25.012377429008488
20
53.556058458983891
10
25.012377429008502
20
74.55605845898387
10
21.712377429008484
20
74.556058458983884
10
21.71237742900848
20
74.199903241695324
42
0.54755884904075525
10
21.712377429008491
20
1.9122136762723896
0
ENDSEC
0
SECTION
2
OBJECTS
0
DICTIONARY
5
C
100
AcDbDictionary
3
ACAD_GROUP
350
D
3
ACAD_MLINESTYLE
350
17
0
DICTIONARY
5
D
100
AcDbDictionary
0
DICTIONARY
5
1A
330
C
100
AcDbDictionary
0
DICTIONARY
5
17
100
AcDbDictionary
0
ENDSEC
0
EOF
