0
SECTION
2
HEADER
9
$INSUNITS
70
4
9
$ACADVER
1
AC1014
9
$HANDSEED
5
FFFF
0
ENDSEC
0
SECTION
2
TABLES
0
TABLE
2
VPORT
5
8
100
AcDbSymbolTable
0
ENDTAB
0
TABLE
2
LTYPE
5
5
100
AcDbSymbolTable
0
LTYPE
5
14
100
AcDbSymbolTableRecord
100
AcDbLinetypeTableRecord
2
BYBLOCK
70
0
0
LTYPE
5
15
100
AcDbSymbolTableRecord
100
AcDbLinetypeTableRecord
2
BYLAYER
70
0
0
LTYPE
5
16
100
AcDbSymbolTableRecord
100
AcDbLinetypeTableRecord
2
DASHED
70
0
3
Dashed __ __ __ __ __ __ __ __ __ __ __ __ __ _
72
65
73
2
40
0.75
49
0.5
74
0
49
-0.25
74
0
0
ENDTAB
0
TABLE
2
LAYER
5
2
100
AcDbSymbolTable
70
2
0
LAYER
5
50
100
AcDbSymbolTableRecord
100
AcDbLayerTableRecord
2
0
70
0
62
7
6
CONTINUOUS
0
ENDTAB
0
TABLE
2
STYLE
5
3
100
AcDbSymbolTable
70
1
0
STYLE
5
11
100
AcDbSymbolTableRecord
100
AcDbTextStyleTableRecord
2
STANDARD
70
0
0
ENDTAB
0
TABLE
2
VIEW
5
6
100
AcDbSymbolTable
70
0
0
ENDTAB
0
TABLE
2
UCS
5
7
100
AcDbSymbolTable
70
0
0
ENDTAB
0
TABLE
2
APPID
5
9
100
AcDbSymbolTable
70
2
0
APPID
5
12
100
AcDbSymbolTableRecord
100
AcDbRegAppTableRecord
2
ACAD
70
0
0
ENDTAB
0
TABLE
2
DIMSTYLE
5
A
100
AcDbSymbolTable
70
1
0
ENDTAB
0
TABLE
2
BLOCK_RECORD
5
1
100
AcDbSymbolTable
70
1
0
BLOCK_RECORD
5
1F
100
AcDbSymbolTableRecord
100
AcDbBlockTableRecord
2
*MODEL_SPACE
0
BLOCK_RECORD
5
1B
100
AcDbSymbolTableRecord
100
AcDbBlockTableRecord
2
*PAPER_SPACE
0
ENDTAB
0
ENDSEC
0
SECTION
2
BLOCKS
0
BLOCK
5
20
100
AcDbEntity
100
AcDbBlockBegin
2
*MODEL_SPACE
0
ENDBLK
5
21
100
AcDbEntity
100
AcDbBlockEnd
0
BLOCK
5
1C
100
AcDbEntity
100
AcDbBlockBegin
2
*PAPER_SPACE
0
ENDBLK
5
1D
100
AcDbEntity
100
AcDbBlockEnd
0
ENDSEC
0
SECTION
2
ENTITIES
0
CIRCLE
5
100
100
AcDbEntity
8
0
100
AcDbCircle
10
-75.287622705101967
20
38.516059319525951
30
0
40
2.0000000000000018
210
-6.9089348440755557e-77
220
-5.9899095479711076e-112
230
1
0
LWPOLYLINE
5
101
100
AcDbEntity
8
0
100
AcDbPolyline
90
39
70
1
43
0.0
10
21.279117174397495
20
74.516058458983949
10
-12.487622570991501
20
74.516058458983935
10
-12.48762257099151
20
53.516058458983906
42
-0.41421356237309681
10
-15.487622570991499
20
50.516058458983899
10
-26.487622570991501
20
50.516058458983892
10
-26.487622570991501
20
47.516058458983899
10
-39.787622570991488
20
47.516058458983899
10
-39.787622570991473
20
50.516058458983878
10
-50.137622570991532
20
50.516058458983899
10
-50.137622570991532
20
47.266058458983892
10
-58.137622570991454
20
47.266058458983892
10
-58.137622570991454
20
50.516058458983899
10
-87.487622570991505
20
50.516058458983892
42
-0.41421356237309503
10
-90.487622570991476
20
53.516058458983899
10
-90.487622570991476
20
67.02922547847875
42
-0.33350547872796116
10
-102.83930388664125
20
69.544609505037783
10
-102.83930388664125
20
6.5275074129300039
42
-0.33350547872796055
10
-90.487622570991476
20
9.0428914394890221
10
-90.487622570991491
20
22.556058458983898
42
-0.41421356237309592
10
-87.487622570991476
20
25.556058458983905
10
-58.137622570991432
20
25.556058458983895
10
-58.137622570991454
20
28.806058458983902
10
-50.137622570991532
20
28.806058458983902
10
-50.137622570991532
20
25.556058458983895
10
-39.787622570991473
20
25.556058458983912
10
-39.787622570991488
20
28.556058458983891
10
-26.487622570991501
20
28.556058458983891
10
-26.487622570991501
20
25.556058458983905
10
-15.487622570991499
20
25.556058458983895
42
-0.41421356237309681
10
-12.48762257099151
20
22.556058458983888
10
-12.487622570991501
20
1.5560584589838555
10
21.279117174397499
20
1.55605845898384
42
-0.11645247367196254
10
7.3340191021200773
20
15.493396788373314
42
0.04651645126705263
10
6.8689907743277541
20
16.505676357784569
10
5.1524034604636118
20
19.478892801025431
42
-0.11231632893840821
10
0.92150004188737422
20
38.036058458983895
42
-0.112316328938409
10
5.1524034604636748
20
56.59322411694248
10
6.8689907743277301
20
59.566440560183239
42
0.046516451267050216
10
7.3340191021200578
20
60.57872012959443
42
-0.11645247367196276
0
CIRCLE
5
102
100
AcDbEntity
8
0
100
AcDbCircle
10
-1.2876227051019651
20
67.056057598441839
30
0
40
1.9999999999999996
210
-3.4544674220377779e-77
220
-2.9949547739855529e-112
230
1
0
CIRCLE
5
103
100
AcDbEntity
8
0
100
AcDbCircle
10
-1.2876227051019651
20
9.0160593195259509
30
0
40
1.9999999999999996
210
-3.4544674220377779e-77
220
-2.9949547739855529e-112
230
1
0
CIRCLE
5
104
100
AcDbEntity
8
0
100
AcDbCircle
10
-94.487622570991505
20
50.516058458983906
30
0
40
1.9999999999999951
210
-3.4544674220377779e-77
220
-2.9949547739855533e-112
230
1
0
CIRCLE
5
105
100
AcDbEntity
8
0
100
AcDbCircle
10
-94.487622570991505
20
25.556058458983884
30
0
40
1.9999999999999951
210
-3.4544674220377779e-77
220
-2.9949547739855533e-112
230
1
0
LWPOLYLINE
5
106
100
AcDbEntity
8
0
100
AcDbPolyline
90
2
70
1
43
0.0
10
-3.9876225709915141
20
37.002492006760185
42
3.5118837356711397
10
-3.9876225709915136
20
39.109623190123493
0
ENDSEC
0
SECTION
2
OBJECTS
0
DICTIONARY
5
C
100
AcDbDictionary
3
ACAD_GROUP
350
D
3
ACAD_MLINESTYLE
350
17
0
DICTIONARY
5
D
100
AcDbDictionary
0
DICTIONARY
5
1A
330
C
100
AcDbDictionary
0
DICTIONARY
5
17
100
AcDbDictionary
0
ENDSEC
0
EOF
