0
SECTION
2
HEADER
9
$INSUNITS
70
4
9
$ACADVER
1
AC1014
9
$HANDSEED
5
FFFF
0
ENDSEC
0
SECTION
2
TABLES
0
TABLE
2
VPORT
5
8
100
AcDbSymbolTable
0
ENDTAB
0
TABLE
2
LTYPE
5
5
100
AcDbSymbolTable
0
LTYPE
5
14
100
AcDbSymbolTableRecord
100
AcDbLinetypeTableRecord
2
BYBLOCK
70
0
0
LTYPE
5
15
100
AcDbSymbolTableRecord
100
AcDbLinetypeTableRecord
2
BYLAYER
70
0
0
LTYPE
5
16
100
AcDbSymbolTableRecord
100
AcDbLinetypeTableRecord
2
DASHED
70
0
3
Dashed __ __ __ __ __ __ __ __ __ __ __ __ __ _
72
65
73
2
40
0.75
49
0.5
74
0
49
-0.25
74
0
0
ENDTAB
0
TABLE
2
LAYER
5
2
100
AcDbSymbolTable
70
2
0
LAYER
5
50
100
AcDbSymbolTableRecord
100
AcDbLayerTableRecord
2
0
70
0
62
7
6
CONTINUOUS
0
ENDTAB
0
TABLE
2
STYLE
5
3
100
AcDbSymbolTable
70
1
0
STYLE
5
11
100
AcDbSymbolTableRecord
100
AcDbTextStyleTableRecord
2
STANDARD
70
0
0
ENDTAB
0
TABLE
2
VIEW
5
6
100
AcDbSymbolTable
70
0
0
ENDTAB
0
TABLE
2
UCS
5
7
100
AcDbSymbolTable
70
0
0
ENDTAB
0
TABLE
2
APPID
5
9
100
AcDbSymbolTable
70
2
0
APPID
5
12
100
AcDbSymbolTableRecord
100
AcDbRegAppTableRecord
2
ACAD
70
0
0
ENDTAB
0
TABLE
2
DIMSTYLE
5
A
100
AcDbSymbolTable
70
1
0
ENDTAB
0
TABLE
2
BLOCK_RECORD
5
1
100
AcDbSymbolTable
70
1
0
BLOCK_RECORD
5
1F
100
AcDbSymbolTableRecord
100
AcDbBlockTableRecord
2
*MODEL_SPACE
0
BLOCK_RECORD
5
1B
100
AcDbSymbolTableRecord
100
AcDbBlockTableRecord
2
*PAPER_SPACE
0
ENDTAB
0
ENDSEC
0
SECTION
2
BLOCKS
0
BLOCK
5
20
100
AcDbEntity
100
AcDbBlockBegin
2
*MODEL_SPACE
0
ENDBLK
5
21
100
AcDbEntity
100
AcDbBlockEnd
0
BLOCK
5
1C
100
AcDbEntity
100
AcDbBlockBegin
2
*PAPER_SPACE
0
ENDBLK
5
1D
100
AcDbEntity
100
AcDbBlockEnd
0
ENDSEC
0
SECTION
2
ENTITIES
0
LINE
5
100
100
AcDbEntity
8
0
100
AcDbLine
10
17.499999999999993
20
74.999999999999972
30
0
11
-17.500000000000021
21
74.999999999999972
31
0
0
LINE
5
101
100
AcDbEntity
8
0
100
AcDbLine
10
-17.500000000000021
20
74.999999999999972
30
0
11
-17.500000000000007
21
53.999999999999993
31
0
0
ARC
5
102
100
AcDbEntity
8
0
100
AcDbCircle
10
-20.500000000000011
20
53.999999999999993
30
0
40
2.9999999999999982
210
0
220
0
230
1
100
AcDbArc
50
-90
51
0
0
LINE
5
103
100
AcDbEntity
8
0
100
AcDbLine
10
-20.500000000000011
20
51
30
0
11
-31.499999999999986
21
51.000000000000014
31
0
0
LINE
5
104
100
AcDbEntity
8
0
100
AcDbLine
10
-31.499999999999986
20
51.000000000000014
30
0
11
-31.499999999999986
21
48.000000000000007
31
0
0
LINE
5
105
100
AcDbEntity
8
0
100
AcDbLine
10
-31.499999999999986
20
48.000000000000007
30
0
11
-44.799999999999976
21
48.000000000000014
31
0
0
LINE
5
106
100
AcDbEntity
8
0
100
AcDbLine
10
-44.799999999999976
20
48.000000000000014
30
0
11
-44.799999999999962
21
51.000000000000021
31
0
0
LINE
5
107
100
AcDbEntity
8
0
100
AcDbLine
10
-44.799999999999962
20
51.000000000000021
30
0
11
-92.5
21
50.999999999999943
31
0
0
ARC
5
108
100
AcDbEntity
8
0
100
AcDbCircle
10
-92.5
20
53.99999999999995
30
0
40
3.0000000000000071
210
0
220
0
230
1
100
AcDbArc
50
180
51
270
0
LINE
5
109
100
AcDbEntity
8
0
100
AcDbLine
10
-95.5
20
53.99999999999995
30
0
11
-95.5
21
74.999999999999972
31
0
0
ELLIPSE
5
110
100
AcDbEntity
8
0
100
AcDbEllipse
10
-95.5
20
-5.3290705182007514e-14
30
0
11
5.4423097455380984e-14
21
-75.000000000000014
31
0.0
40
0.4599999999999998
41
3.1415926535897913
42
6.2831853071795862
0
LINE
5
111
100
AcDbEntity
8
0
100
AcDbLine
10
-95.499999999999943
20
-75.000000000000071
30
0
11
-95.499999999999915
21
-54.000000000000057
31
0
0
ARC
5
112
100
AcDbEntity
8
0
100
AcDbCircle
10
-92.499999999999943
20
-54.00000000000005
30
0
40
2.9999999999999893
210
0
220
0
230
1
100
AcDbArc
50
90.00000000000081
51
180
0
LINE
5
113
100
AcDbEntity
8
0
100
AcDbLine
10
-92.499999999999986
20
-51.000000000000057
30
0
11
-44.799999999999962
21
-51.000000000000021
31
0
0
LINE
5
114
100
AcDbEntity
8
0
100
AcDbLine
10
-44.799999999999962
20
-51.000000000000021
30
0
11
-44.799999999999976
21
-48.000000000000014
31
0
0
LINE
5
115
100
AcDbEntity
8
0
100
AcDbLine
10
-44.799999999999976
20
-48.000000000000014
30
0
11
-31.499999999999986
21
-48.000000000000007
31
0
0
LINE
5
116
100
AcDbEntity
8
0
100
AcDbLine
10
-31.499999999999986
20
-48.000000000000007
30
0
11
-31.499999999999986
21
-51.000000000000014
31
0
0
LINE
5
117
100
AcDbEntity
8
0
100
AcDbLine
10
-31.499999999999986
20
-51.000000000000014
30
0
11
-20.49999999999995
21
-51.000000000000014
31
0
0
ARC
5
118
100
AcDbEntity
8
0
100
AcDbCircle
10
-20.49999999999995
20
-54.000000000000014
30
0
40
2.9999999999999893
210
0
220
0
230
1
100
AcDbArc
50
0
51
90
0
LINE
5
119
100
AcDbEntity
8
0
100
AcDbLine
10
-17.499999999999961
20
-54.000000000000021
30
0
11
-17.499999999999957
21
-75.000000000000043
31
0
0
LINE
5
120
100
AcDbEntity
8
0
100
AcDbLine
10
-17.499999999999957
20
-75.000000000000043
30
0
11
17.499999999999993
21
-75.000000000000043
31
0
0
LINE
5
121
100
AcDbEntity
8
0
100
AcDbLine
10
17.499999999999993
20
-75.000000000000043
30
0
11
17.500000000000014
21
-54.000000000000014
31
0
0
ARC
5
122
100
AcDbEntity
8
0
100
AcDbCircle
10
20.499999999999989
20
-53.999999999999993
30
0
40
2.9999999999999893
210
0
220
-0
230
1
100
AcDbArc
50
90
51
180
0
LINE
5
123
100
AcDbEntity
8
0
100
AcDbLine
10
20.499999999999989
20
-51.000000000000007
30
0
11
31.499999999999986
21
-51
31
0
0
LINE
5
124
100
AcDbEntity
8
0
100
AcDbLine
10
31.499999999999986
20
-51
30
0
11
31.499999999999986
21
-48.000000000000007
31
0
0
LINE
5
125
100
AcDbEntity
8
0
100
AcDbLine
10
31.499999999999986
20
-48.000000000000007
30
0
11
44.799999999999976
21
-48.000000000000007
31
0
0
LINE
5
126
100
AcDbEntity
8
0
100
AcDbLine
10
44.799999999999976
20
-48.000000000000007
30
0
11
44.799999999999962
21
-50.999999999999986
31
0
0
LINE
5
127
100
AcDbEntity
8
0
100
AcDbLine
10
44.799999999999962
20
-50.999999999999986
30
0
11
92.5
21
-50.999999999999986
31
0
0
ARC
5
128
100
AcDbEntity
8
0
100
AcDbCircle
10
92.5
20
-53.999999999999986
30
0
40
2.9999999999999893
210
0
220
0
230
1
100
AcDbArc
50
0
51
90
0
LINE
5
129
100
AcDbEntity
8
0
100
AcDbLine
10
95.499999999999986
20
-54
30
0
11
95.5
21
-75.000000000000014
31
0
0
ELLIPSE
5
130
100
AcDbEntity
8
0
100
AcDbEllipse
10
95.499999999999986
20
-1.7763568394002505e-14
30
0
11
6.047010828375671e-15
21
75
31
0.0
40
0.4600000000000003
41
3.1415926535897936
42
6.2831853071795862
0
LINE
5
131
100
AcDbEntity
8
0
100
AcDbLine
10
95.499999999999972
20
74.999999999999986
30
0
11
95.499999999999972
21
54
31
0
0
ARC
5
132
100
AcDbEntity
8
0
100
AcDbCircle
10
92.499999999999986
20
54
30
0
40
3.0000000000000071
210
0
220
0
230
1
100
AcDbArc
50
-90
51
0
0
LINE
5
133
100
AcDbEntity
8
0
100
AcDbLine
10
92.499999999999986
20
51
30
0
11
44.799999999999969
21
51.000000000000007
31
0
0
LINE
5
134
100
AcDbEntity
8
0
100
AcDbLine
10
44.799999999999969
20
51.000000000000007
30
0
11
44.799999999999976
21
48.000000000000007
31
0
0
LINE
5
135
100
AcDbEntity
8
0
100
AcDbLine
10
44.799999999999976
20
48.000000000000007
30
0
11
31.499999999999986
21
48.000000000000007
31
0
0
LINE
5
136
100
AcDbEntity
8
0
100
AcDbLine
10
31.499999999999986
20
48.000000000000007
30
0
11
31.499999999999986
21
51
31
0
0
LINE
5
137
100
AcDbEntity
8
0
100
AcDbLine
10
31.499999999999986
20
51
30
0
11
20.499999999999989
21
51
31
0
0
ARC
5
138
100
AcDbEntity
8
0
100
AcDbCircle
10
20.499999999999989
20
53.999999999999993
30
0
40
3.0000000000000027
210
0
220
0
230
1
100
AcDbArc
50
180
51
270
0
LINE
5
139
100
AcDbEntity
8
0
100
AcDbLine
10
17.499999999999986
20
53.999999999999993
30
0
11
17.499999999999993
21
74.999999999999972
31
0
0
LWPOLYLINE
5
140
100
AcDbEntity
8
0
100
AcDbPolyline
90
4
70
1
43
0.0
10
31.499999999999986
20
-26.000000000000007
10
44.799999999999976
20
-26.000000000000007
10
44.799999999999976
20
-29.000000000000004
10
31.499999999999986
20
-29.000000000000004
0
LWPOLYLINE
5
141
100
AcDbEntity
8
0
100
AcDbPolyline
90
4
70
1
43
0.0
10
44.799999999999976
20
26.000000000000007
10
31.499999999999986
20
26.000000000000007
10
31.499999999999986
20
29.000000000000004
10
44.799999999999976
20
29.000000000000004
0
LWPOLYLINE
5
142
100
AcDbEntity
8
0
100
AcDbPolyline
90
12
70
1
43
0.0
10
63.149999999999942
20
25.999999999999996
10
69.650000000000006
20
25.999999999999996
10
69.650000000000006
20
17.999999999999993
10
63.149999999999942
20
17.999999999999993
10
63.149999999999942
20
14.749999999999998
10
55.15000000000002
20
14.749999999999998
10
55.15000000000002
20
17.999999999999993
10
48.649999999999963
20
17.999999999999993
10
48.649999999999963
20
25.999999999999996
10
55.15000000000002
20
25.999999999999996
10
55.15000000000002
20
29.250000000000004
10
63.149999999999942
20
29.250000000000004
0
LWPOLYLINE
5
143
100
AcDbEntity
8
0
100
AcDbPolyline
90
12
70
1
43
0.0
10
63.150000000000013
20
-29.25
10
55.15000000000002
20
-29.250000000000004
10
55.15000000000002
20
-25.999999999999996
10
48.649999999999963
20
-25.999999999999996
10
48.649999999999963
20
-17.999999999999993
10
55.15000000000002
20
-17.999999999999993
10
55.15000000000002
20
-14.749999999999998
10
63.150000000000013
20
-14.749999999999998
10
63.150000000000013
20
-17.999999999999993
10
69.649999999999963
20
-17.999999999999993
10
69.649999999999963
20
-25.999999999999996
10
63.150000000000013
20
-25.999999999999996
0
LWPOLYLINE
5
144
100
AcDbEntity
8
0
100
AcDbPolyline
90
12
70
1
43
0.0
10
-55.150000000000048
20
14.749999999999986
10
-63.149999999999977
20
14.749999999999982
10
-63.149999999999977
20
17.999999999999979
10
-69.65000000000002
20
17.999999999999975
10
-69.65000000000002
20
26.000000000000021
10
-63.149999999999977
20
26.000000000000021
10
-63.149999999999977
20
29.250000000000014
10
-55.150000000000048
20
29.250000000000011
10
-55.150000000000048
20
26.000000000000018
10
-48.649999999999991
20
26.000000000000018
10
-48.649999999999991
20
17.999999999999982
10
-55.150000000000048
20
17.999999999999982
0
LWPOLYLINE
5
145
100
AcDbEntity
8
0
100
AcDbPolyline
90
12
70
1
43
0.0
10
-63.149999999999977
20
-26.000000000000021
10
-69.65000000000002
20
-26.000000000000021
10
-69.65000000000002
20
-17.999999999999975
10
-63.149999999999977
20
-17.999999999999979
10
-63.149999999999977
20
-14.749999999999982
10
-55.150000000000048
20
-14.749999999999986
10
-55.150000000000048
20
-17.999999999999979
10
-48.649999999999991
20
-17.999999999999982
10
-48.649999999999991
20
-26.000000000000018
10
-55.150000000000048
20
-26.000000000000021
10
-55.150000000000048
20
-29.250000000000011
10
-63.149999999999977
20
-29.250000000000014
0
LWPOLYLINE
5
146
100
AcDbEntity
8
0
100
AcDbPolyline
90
4
70
1
43
0.0
10
-31.500000000000004
20
-29.000000000000007
10
-44.799999999999997
20
-29.000000000000014
10
-44.799999999999997
20
-26.000000000000014
10
-31.500000000000004
20
-26.000000000000014
0
LWPOLYLINE
5
147
100
AcDbEntity
8
0
100
AcDbPolyline
90
4
70
1
43
0.0
10
-31.500000000000004
20
26.000000000000014
10
-44.799999999999997
20
26.000000000000014
10
-44.799999999999997
20
29.000000000000014
10
-31.500000000000004
20
29.000000000000007
0
CIRCLE
5
148
100
AcDbEntity
8
0
100
AcDbCircle
10
-3.1368934217574463e-14
20
64.499999999999915
30
0
40
2.0000000000000018
210
0
220
0
230
1
0
CIRCLE
5
149
100
AcDbEntity
8
0
100
AcDbCircle
10
-100
20
0
30
0
40
10.499999999999991
210
0
220
0
230
-1
0
CIRCLE
5
150
100
AcDbEntity
8
0
100
AcDbCircle
10
-99.500000000000014
20
-51.000000000000014
30
0
40
1.9999999999999951
210
0
220
0
230
-1
0
CIRCLE
5
151
100
AcDbEntity
8
0
100
AcDbCircle
10
99.499999999999972
20
51
30
0
40
1.9999999999999951
210
0
220
0
230
1
0
CIRCLE
5
152
100
AcDbEntity
8
0
100
AcDbCircle
10
-2.4142217013683373e-14
20
-64.5
30
0
40
2.0000000000000018
210
0
220
0
230
-1
0
CIRCLE
5
153
100
AcDbEntity
8
0
100
AcDbCircle
10
99.500000000000028
20
50.999999999999915
30
0
40
1.9999999999999951
210
0
220
0
230
-1
0
CIRCLE
5
154
100
AcDbEntity
8
0
100
AcDbCircle
10
-99.499999999999972
20
-51.000000000000071
30
0
40
1.9999999999999951
210
0
220
0
230
1
0
CIRCLE
5
155
100
AcDbEntity
8
0
100
AcDbCircle
10
-100
20
-5.5511151231257827e-14
30
0
40
10.499999999999991
210
0
220
0
230
1
0
ENDSEC
0
SECTION
2
OBJECTS
0
DICTIONARY
5
C
100
AcDbDictionary
3
ACAD_GROUP
350
D
3
ACAD_MLINESTYLE
350
17
0
DICTIONARY
5
D
100
AcDbDictionary
0
DICTIONARY
5
1A
330
C
100
AcDbDictionary
0
DICTIONARY
5
17
100
AcDbDictionary
0
ENDSEC
0
EOF
